<?xml version="1.0" encoding="utf-8"?>
<svg version="1.1" xmlns="http://www.w3.org/2000/svg" xmlns:xlink="http://www.w3.org/1999/xlink" x="0px" y="0px"
	 viewBox="0 0 792 612" style="enable-background:new 0 0 792 612;" xml:space="preserve">
<style type="text/css">
	.st0{fill:#000000;}
	.st1{fill:#E80000;}
	.st2{font-family:'Montserrat-SemiBold';}
	.st3{font-size:51px;}
	.st4{letter-spacing:11.89;}
</style>
<path class="st0" d="M103.31,115.45c0,0-4.96,5.25-7.92,13.54c0,0-3.83,9.79-3.71,17.33l0.04,305.42l-39.87,0.08V145.25
	c0,0,0.43-4.22,2.21-8.94c0,0,2.09-6.75,6.44-12.62c0,0,5.03-7.19,12.56-10.06c0,0,4.94-2.41,14.22-2.19
	C87.28,111.44,96.71,111.3,103.31,115.45z"/>
<path class="st1" d="M199.81,275.15l-48.31-102.5c0,0-0.81-2.13-2.69-1.56c0,0-1,0.06-0.94,2.56l1.5,278.13l-40.88,0.04V147.03
	c0,0,0.19-9.5,6.19-19.31c0,0,7.06-14.69,28.75-16.63c0,0,17.96-2.27,29.63,15.23c0,0,5.19,7.52,9.63,18.33
	c4.44,10.81,24.44,52.38,24.44,52.38l14.5,31.25L199.81,275.15z"/>
<path class="st1" d="M239.06,361.78c0,0,7.38,12,23.44,12.69c0,0,12.44,0.13,21.31-11.56c0,0,2.88-4.19,5.25-9.94l11.69-24.75
	l10.06-21.5l10.75-22.88l8.56-18.31l10.69-22.69l9.44-20.19l9.19-19.44l9.5-20.38l5.69-12.13c0,0,1.25-0.19,1.25,2.69l-1.06,278.44
	l41-0.13l-0.25-313.88c0,0-2.83-27.35-36.83-27.69c0,0-10.04-0.94-21.98,8.81c0,0-6.63,5.25-11.13,14.81
	C341.12,143.34,239.06,361.78,239.06,361.78z"/>
<path class="st0" d="M521.81,286.44l-47.59,101.16c-1.69,4.41-2.78,3.84-2.78,3.84c-1.22-0.41-1.44-4.06-1.44-4.06l1.71-275.34
	h-41.02c0.04,20.99,0.6,293.68,0,301.25c-0.63,7.88,3.25,16.56,3.25,16.56c4.31,9.44,12,15.44,19.75,18.81s16.31,4.69,28.13-0.69
	s16.88-16.88,16.88-16.88l45.44-96.81L521.81,286.44z"/>
<rect x="681.64" y="112.03" class="st0" width="4.42" height="207.69"/>
<path d="M686.06,319.72v9.18v0.7l-0.07-0.32l-0.09-0.62l-0.05-1.55l-0.03-1.47l-0.13-1.6c0,0,0-1.36,0-1.35
	c0,0.02-0.15-1.74-0.15-1.74l0.05-1.27l0.4-0.25L686.06,319.72z"/>
<polygon class="st0" points="451.56,248.65 432.98,118.63 433.16,117.01 432.73,114.84 431.14,112.03 430.69,112.03 430.62,415.28 
	461.06,358.15 "/>
<path class="st0" d="M322.62,111.44c-7.97-0.91-12.47,0.25-12.47,0.25c-8.72,1.84-15.28,8-15.28,8c-3.03,2.41-7.34,8.25-7.34,8.25
	c-1.84,2.34-4.31,8.09-4.31,8.09l-6.66,14.34l-6.44,14.06l-9.22,19.91l-11.47,24.94l-12.5,26.94l-14.84,32.06l-8.44,18.38
	l-8.33,17.75c-1.64,3.33-3.31,5.63-3.31,5.63c-1.4,1.71-2.52,1.5-2.52,1.5c-0.98,0-1.27-0.9-1.27-0.9l-32.75-71.48v99.28
	l10.02,18.94c3.03,5.47,8.75,10.19,8.75,10.19c8.03,6.78,15,6.31,15,6.31s7.22,0.38,14.94-5.16s9.69-11.63,9.69-11.63L337.96,117.5
	C331.9,112.78,322.62,111.44,322.62,111.44z"/>
<polygon class="st0" points="318.18,323.15 318.18,451.84 360.12,451.84 361.25,234.72 "/>
<path class="st0" d="M738.06,419.53l-0.19-307.5h-40.19l0.21,276.92c0.04,2.75-0.83,2.25-0.83,2.25c-0.71,0-1.58-2.21-1.58-2.21
	l-9.79-20.88l-13.13-28.08l-8.83-19.04l-8.29-17.79l-9.13-19.54l-7.79-16.79l-10.38-22.21l-14.04-30.08
	c-1.18-2.63-2.16-4.75-2.98-6.47c-3.21-6.95-7.24-11.3-7.96-12.04c-3.64-3.51-6.86-5.15-6.86-5.15c-9.56-5.94-21.08-1.21-21.08-1.21
	c-8.38,2.63-14.13,10.42-14.13,10.42l104.77,223.73c3.5,9.56,8.44,14.5,8.44,14.5c11.5,14.38,27.69,13.44,27.69,13.44
	c13.69-0.19,22.38-6.94,22.38-6.94C738.43,435.53,738.06,419.53,738.06,419.53z"/>
<path class="st0" d="M572.68,190.68c0,0,21.86-12.23,35.54,12.04c0,0-8.16,5.76-8.82,6.1c-0.67,0.33-7.33,1.17-10,1.67
	c-2.67,0.5,7.17,3.83-3.67-2.83c-10.83-6.67-13.05-10.33-13.05-10.33v-5.83"/>
<polygon class="st0" points="685.5,112.03 642.68,112.03 642.68,240.72 686.06,329.59 "/>
<text transform="matrix(1.0088 0 0 1 46.0579 507.6545)" class="st0 st2 st3 st4">make my website</text>
</svg>
